<mxfile host="app.diagrams.net" modified="2020-05-04T19:16:47.362Z" agent="5.0 (Macintosh; Intel Mac OS X 10_14_6) AppleWebKit/537.36 (KHTML, like Gecko) Chrome/81.0.4044.129 Safari/537.36" etag="OqrFNvNQARo86hMOEXO2" version="12.9.5" type="github">
  <diagram id="T4u0Y3bBq86gkZgJAWHJ" name="Page-1">
    <mxGraphModel dx="1149" dy="487" grid="1" gridSize="10" guides="1" tooltips="1" connect="1" arrows="1" fold="1" page="1" pageScale="1" pageWidth="850" pageHeight="1100" math="0" shadow="0">
      <root>
        <mxCell id="0" />
        <mxCell id="1" parent="0" />
        <mxCell id="6usMQfMr4u8GjCrtowm1-1" value="Incoming Event" style="shape=mxgraph.bpmn.shape;html=1;verticalLabelPosition=bottom;labelBackgroundColor=#ffffff;verticalAlign=top;align=center;perimeter=ellipsePerimeter;outlineConnect=0;outline=standard;symbol=general;" vertex="1" parent="1">
          <mxGeometry x="350" y="40" width="50" height="50" as="geometry" />
        </mxCell>
        <mxCell id="6usMQfMr4u8GjCrtowm1-4" value="" style="edgeStyle=orthogonalEdgeStyle;rounded=0;orthogonalLoop=1;jettySize=auto;html=1;" edge="1" parent="1" source="6usMQfMr4u8GjCrtowm1-2" target="6usMQfMr4u8GjCrtowm1-3">
          <mxGeometry relative="1" as="geometry" />
        </mxCell>
        <mxCell id="6usMQfMr4u8GjCrtowm1-2" value="Session authentication" style="shape=ext;rounded=1;html=1;whiteSpace=wrap;dashed=1;dashPattern=1 4;" vertex="1" parent="1">
          <mxGeometry x="325" y="140" width="100" height="50" as="geometry" />
        </mxCell>
        <mxCell id="6usMQfMr4u8GjCrtowm1-6" value="" style="edgeStyle=orthogonalEdgeStyle;rounded=0;orthogonalLoop=1;jettySize=auto;html=1;" edge="1" parent="1" source="6usMQfMr4u8GjCrtowm1-3" target="6usMQfMr4u8GjCrtowm1-5">
          <mxGeometry relative="1" as="geometry" />
        </mxCell>
        <mxCell id="6usMQfMr4u8GjCrtowm1-3" value="Retrieve list of target topics" style="shape=ext;rounded=1;html=1;whiteSpace=wrap;dashed=1;dashPattern=1 4;" vertex="1" parent="1">
          <mxGeometry x="325" y="220" width="100" height="50" as="geometry" />
        </mxCell>
        <mxCell id="6usMQfMr4u8GjCrtowm1-5" value="Validate access to topics" style="shape=ext;rounded=1;html=1;whiteSpace=wrap;dashed=1;dashPattern=1 4;" vertex="1" parent="1">
          <mxGeometry x="325" y="300" width="100" height="50" as="geometry" />
        </mxCell>
      </root>
    </mxGraphModel>
  </diagram>
</mxfile>
